<svg width="72" height="72" viewBox="0 0 72 72" fill="none" xmlns="http://www.w3.org/2000/svg">
<path d="M64.0125 20.0002C58.775 23.0502 53.5375 26.0877 48.325 29.1877C47.9625 29.4002 47.7125 30.0502 47.675 30.5127C46.85 41.5502 41.3875 49.5877 31.6875 54.7002C30.075 55.5502 28.175 55.9002 26.0625 55.7252C23.275 55.5002 21.5125 53.2877 21.8 50.5002C22.05 48.0627 23.275 46.0877 24.725 44.2252C27.95 40.1127 32.0125 36.8877 36.175 33.8127C38.8125 31.8627 41.5625 30.0752 44.3375 28.1502C43.65 26.8002 41.975 25.8377 40.525 25.9627C37.775 26.1877 36.4625 26.8127 34.3875 27.6377C27.875 30.2252 22.25 34.2752 17.2625 39.1127C13.55 42.7127 10.1 46.5752 6.53752 50.3252C6.22502 50.6502 5.93752 51.0127 5.62502 51.3002C5.13752 51.7502 4.65002 51.9252 4.18752 51.6127C3.68752 51.3877 3.87502 50.5752 4.01252 50.1502C4.23752 49.4502 4.61252 48.7752 5.06252 48.2002C12.075 39.0627 20.15 31.1127 30.625 25.9752C32.925 24.8502 35.425 24.0627 37.9125 23.4377C41.4875 22.5502 44.65 23.2877 46.775 26.7252C51.8625 24.0002 56.875 21.3127 61.975 18.5752C60.1 18.5752 58.325 18.5752 56.5375 18.5752C56.2375 18.5752 55.9375 18.6127 55.6375 18.5877C54.825 18.5252 53.75 18.6877 53.675 17.5127C53.6 16.3627 54.6875 16.3502 55.4 16.3377C59.0125 16.2502 62.6375 16.2002 66.25 16.2877C67.725 16.3252 68.4375 17.3002 67.8375 18.6252C66.1375 22.4752 64.25 26.2627 62.35 30.0252C62.175 30.3752 61.5375 30.9127 60.825 30.5627C60.3 30.2377 60.3125 29.3877 60.475 28.9752C61.4625 26.4877 62.5625 24.0377 63.6375 21.5752C63.825 21.1377 64.0375 20.7002 64.2375 20.2627C64.6875 19.5877 64.425 19.7627 64.0125 20.0002ZM45.375 31.3002C45.4125 30.8502 44.7375 31.4377 44.625 31.5127C38.7375 35.4377 32.9875 39.5377 28.225 44.8252C26.95 46.2377 25.875 47.9252 25.0875 49.6627C24.05 51.9752 25.3625 53.5877 27.875 53.1252C29.5 52.8252 31.1875 52.2877 32.6 51.4377C38.6125 47.8502 43.4 40.8627 44.625 35.9002C45.075 34.0002 45.075 33.4752 45.375 31.3002Z" fill="red"/>
</svg>
