<svg width="240" height="240" viewBox="0 0 240 240" fill="none" xmlns="http://www.w3.org/2000/svg">
<path d="M165.167 70.2076C164.125 80.4993 163.375 89.0826 162.333 97.6243C161.75 102.291 159.833 106.333 154.583 107.458C150.208 108.374 145.667 105.958 143.042 100.583C140.5 95.416 138.667 89.8743 136.75 84.416C131.208 68.7493 122.667 54.8326 112.083 42.1243C108.792 38.166 105.542 34.2076 101.75 29.6243C100.917 32.416 100.25 34.666 99.5833 36.916C92.5 61.3743 90.0833 86.291 91.1666 111.666C91.5 119.874 90.5416 128.249 89.375 136.416C88.625 141.666 86.6666 146.999 80.3333 148.166C75.7916 148.999 71.2916 145.249 68.5416 138.416C66.7083 133.833 65.5 128.958 63.8333 124.291C62.9166 121.666 61.5833 119.208 60.375 116.458C45.0833 135.041 56.75 196.333 77.125 205.291C77.2083 188.874 84.75 175.291 93.6666 162.458C106.292 144.291 113.167 124.208 115.458 102.374C115.625 100.749 115.958 99.0826 116.25 97.4993C117.667 90.0826 120.708 88.8743 126.25 94.3743C129.833 97.916 133 102.291 135.083 106.833C145.417 129.083 149.708 152.166 142.708 176.416C141.917 179.083 140.125 182.833 141.458 184.749C143.792 187.666 147.458 182.666 148.25 180.624C150.333 175.249 151.625 169.624 153.292 164.083C154.333 160.624 154.958 156.833 156.833 153.833C158.292 151.499 161.458 148.624 163.625 148.833C165.875 149.041 169 152.249 169.75 154.749C175.25 173.374 172.667 190.416 155.5 204.874C146.667 212.333 135.792 214.749 124.667 216.208C112.125 217.833 99.75 218.333 87.1666 215.458C81.1666 214.083 74.9166 213.166 71.2916 211.833C67.6666 210.499 64.5833 207.791 63.125 205.541C44.5833 176.916 41.5416 146.749 54.5833 115.124C57.2916 108.583 62.5 107.208 67.0833 112.624C70.4583 116.624 72.375 121.999 74.5 126.999C75.9583 130.499 76.75 134.291 77.75 137.958C79 142.541 80.8333 143.249 82.0833 142.458C83.625 141.999 84.5416 136.458 84.375 130.916C84.0833 121.791 84.25 112.624 83.2916 103.583C80.5 77.0826 86.9583 52.2493 96.375 27.916C98.7083 21.8326 101.375 21.0826 106.375 25.3326C126.875 42.7076 141.667 63.8743 148.375 90.2076C149.417 94.2076 149.75 98.7076 154.833 101.874C155.333 97.9993 155.75 94.791 156.208 91.6243C157.375 83.791 158.125 75.8743 159.875 68.2076C160.958 63.5826 164.167 62.6243 167.542 65.9576C171.958 70.3326 176.292 75.166 179.167 80.6243C189.875 101.041 193.542 123.208 193.458 146.041C193.375 163.999 190.042 181.416 181.792 197.458C179 202.916 174.292 207.416 170.292 212.208C168.5 214.374 164.417 213.666 166.292 208.833C166.458 208.416 166.667 207.916 166.958 207.499C182.458 186.708 184 162.374 184.208 137.874C184.375 118.333 181.542 99.166 172.417 81.4993C170.5 77.8743 168.042 74.6243 165.167 70.2076ZM162.917 155.666C160.458 163.833 158.542 170.583 156.333 177.291C154.583 182.583 151.917 187.374 146.667 189.999C140.583 193.083 134.667 189.666 134.333 182.833C134.208 180.041 134.333 177.166 134.875 174.458C139.125 152.708 137.125 131.624 128.625 111.166C127.167 107.666 125.042 104.458 122.917 100.624C122.167 101.874 121.625 106.416 121.542 108.374C121 123.208 119.333 137.874 111.542 150.958C106.875 158.749 101.625 166.208 96.5416 173.791C90.9166 182.249 85.9166 190.999 84.0833 201.166C82.8333 208.124 83.375 208.458 90.0416 210.166C104.167 213.749 118 211.458 131.792 208.708C147.5 205.583 157.292 195.249 163.125 180.999C166.333 173.208 165.417 165.124 162.917 155.666Z" fill="black"/>
</svg>
