<svg width="240" height="240" viewBox="0 0 240 240" fill="none" xmlns="http://www.w3.org/2000/svg">
<path d="M139.75 71.0419C139.458 71.8752 144.792 71.2085 147.042 71.0002C159.833 69.8335 159.833 69.7919 162.917 57.3752C165 48.9169 168 45.8335 173.375 46.4585C178.208 47.0002 180.583 50.8752 180.333 59.4585C180 70.8752 179.25 82.2919 178.458 93.6669C178.292 96.0835 177.917 99.0835 176.375 100.625C174.25 102.75 173.292 103.542 169.417 104.709C167.458 105.292 164.708 105.417 163.417 102.459C162.917 101.25 162.333 95.6252 162.208 94.1669C161.625 86.8752 161.083 86.9585 153.292 88.2919C151.167 88.6669 149.083 89.1669 147 89.6252C136.375 91.8752 135.958 93.2085 135.625 100.375C135.458 103.959 134.667 104.959 133.708 106.417C131.333 110.042 127.625 110.084 123.583 108.875C119.708 107.709 117.083 104.834 117.583 100.792C119.5 85.7085 121.583 70.6252 124.167 55.6669C125 50.7502 133.042 46.6252 137.708 48.3335C139.375 48.9585 141.292 51.5419 141.375 53.2919C141.542 57.5419 140.708 61.8335 140.292 66.1252C140.083 67.6669 139.917 69.2502 139.75 71.0419ZM135.042 55.2502C135.25 54.2502 134.917 54.0002 133.25 54.1252C130.75 54.0002 130.792 56.8335 130.542 58.3752C128.625 70.9585 126 83.5835 124.333 96.2085C124.125 97.9169 123.125 101.084 123.875 102.667C124.25 103.459 125.333 103.459 126.583 103.459C130.583 103.459 130.25 101.5 130.583 96.9585C131.292 87.7085 135.208 85.8752 141.958 84.5002C146.792 83.5002 151.667 82.5419 156.583 81.8752C163.375 80.9585 166.75 83.8335 167.542 90.7085C167.875 93.5002 167.958 100.167 169 99.9585C170.042 99.7502 172.708 100.334 173.542 96.8752C176.25 85.9169 176.542 62.4169 175.542 52.9585C175.208 49.7502 170.792 51.0419 170.417 51.6669C169.5 52.0835 167.917 62.7502 167.458 66.2085C166.625 72.0419 163.458 75.5002 157.542 76.2502C152.292 76.9169 147.042 77.6669 141.75 78.0419C135.583 78.5002 133.125 76.0835 133.458 69.9169C133.833 65.0835 134.542 60.1669 135.042 55.2502Z" fill="black"/>
<path d="M218.958 150.041C224.042 155.416 225.458 162.791 224.333 170.875C223.458 177.125 220.5 180.583 215.375 181C209.375 181.458 205.708 178.666 204.167 172.208C203.292 168.5 203.083 164.583 201.75 161.125C201 159.208 201.583 156.291 196.708 156.875C195.208 157.041 193.083 159.625 192.292 161.625C190.542 166.041 189.75 170.875 187.917 175.25C186.25 179.208 183.167 181.625 178.375 180.041C174.125 178.625 171.708 175 172.667 170.291C175.458 156.666 177.875 142.958 181.583 129.625C182.083 127.791 184.083 122.125 184.667 121.375C187.208 118.041 188.583 119.416 190.375 118.25C200.458 111.541 216.125 110.791 224.375 119C228.708 123.291 228.542 128.375 227.5 134.125C226.292 141.125 222.167 144.166 218.958 150.041ZM181.667 174.916C182.5 174.916 182.5 174.916 182.958 173C184.083 168.5 185.25 164.041 186.375 159.583C188.042 153.083 191.583 150.458 198.25 150.791C203.333 151.041 207.333 154.375 209 160.291C210 163.791 210.125 167.5 211.208 170.958C211.708 172.5 211.958 175.041 214.875 174.875C217.875 174.333 218.833 172.708 218.708 169.958C218.542 165.583 218.417 162.916 215.542 157.666C211.417 150.083 211.042 149 215.583 144.833C217.167 143.375 218.917 141.791 220.458 138.25C223.167 132.125 223.25 129.125 221.25 125.875C219.25 122.625 214.792 120.583 208.458 120.333C205.167 120.208 201.667 121.458 198.458 122.583C196 123.458 193.625 124.875 191.583 126.5C190.083 127.666 188.5 129.458 188.083 131.208C185.167 144.125 182.458 157.083 179.833 170.083C178.458 174.916 181.125 174.875 181.667 174.916Z" fill="black"/>
<path d="M89.875 150.167C91.75 150.75 95.5 151.375 98.875 151.709C103.375 152.167 105.375 154.75 105.583 158.834C105.792 163.375 103.583 167.167 98.875 166.75C97.75 166.667 92.9583 166.292 90.4167 166.584C88.7083 166.792 88.5 167.875 89.2917 168.459C89.8333 169.5 98.875 169.417 101.042 169.709C105.375 170.25 108.5 169.959 109.625 175.375C110.542 179.709 108.708 184.417 102.25 184.667C90.3333 185.125 83.0417 183.417 72.9583 180.667C70.5417 180 68.5 177.75 69.0416 172.667C70.2083 158 72 143.417 73.875 128.834C74.0416 127.459 76.25 125.292 77.5417 125.25C87.4583 125.167 97.4166 125.125 107.292 125.917C112.833 126.334 114.833 129.5 114.792 134.584C114.75 139.459 111.917 143.042 106.875 143.875C102.625 144.584 89.8333 142.959 88.9167 144.542C88 146.209 87.9583 149.542 89.875 150.167ZM79.6667 130.292C78.3333 144.417 77.125 157.917 75.75 171.375C75.3333 175.584 77.0416 177.542 81.125 177.917C87.0416 178.459 92.9583 179.334 98.875 179.625C100.5 179.709 103.083 180.084 103.833 177.375C104.625 174.25 101.708 174.75 99.1666 174.5C94.75 174.125 92.2083 174.417 87.9583 173.375C83.2083 172.209 82.4167 168.584 83.8333 163.917C84.7917 160.709 94.75 161.167 96.875 160.834C97.9167 160.667 99.8333 161.167 99.7917 158.917C100.083 156.917 98.1666 157.084 97.1666 156.875C94.75 156.375 92.25 156.292 89.7916 156.125C81.75 156.167 82.0416 150 83.3333 144.375C84 141.5 85.25 140.084 91.625 139.25C95.8333 138.709 100.917 139.375 105.208 138.917C107.792 138.625 109.125 137.875 109.125 133.709C109.125 130.25 105.917 130.542 104.125 130.459C95.9583 130.084 87.875 130.292 79.6667 130.292Z" fill="black"/>
<path d="M71.8333 61.3328C74.625 55.5828 78.25 50.3745 85.7083 50.2495C95.3333 50.1245 104.917 51.1245 109.292 61.2078C115.708 76.0411 115.333 90.9161 105.958 104.624C101.5 111.124 94.7917 114.333 86.7917 114.291C77.75 114.249 70.7916 109.333 68.3333 100.624C66.8333 95.4161 62.6666 80.1245 71.8333 61.3328ZM102.833 66.3328C100.292 59.2911 94.2083 57.9161 87.5833 57.5411C81.625 57.2078 78.9583 61.5411 77.5 65.6245C75 72.6245 73.5 79.9161 72.2917 87.2078C71.0833 94.4995 73.3333 103.124 79.1667 105.458C85.625 108.083 94.375 105.541 99.5 98.9578C101.125 96.9161 102.833 94.1244 103.75 90.1244C106.833 76.5411 104.333 70.4995 102.833 66.3328Z" fill="black"/>
<path d="M145.833 157.667C141.875 158.209 142.417 160.876 141.458 163.209C139.583 167.709 138.583 172.709 136.25 176.917C133.25 182.292 127.875 183.959 123.708 181.959C119.708 180.001 118.042 175.417 120 169.292C122.708 160.792 125.917 152.459 129.083 144.084C131 139.001 133.167 133.959 135.458 129.042C138.958 121.501 145.042 117.626 151.667 118.292C158.375 119.001 164.875 125.042 166.375 132.626C167.167 136.626 167.625 140.876 167.333 144.917C166.75 153.626 165.833 162.334 164.458 170.917C163.833 174.751 161.875 179.084 157 178.709C152.125 178.334 149.708 174.459 149.042 169.834C148.375 165.667 149.792 157.126 145.833 157.667ZM156.583 174.917C157.542 176.667 159.875 175.709 160.542 174.501C161.208 171.751 161.333 169.376 161.292 166.626C161.25 156.667 161 146.751 160.292 136.834C160.083 133.751 158.542 130.417 156.708 127.834C153.458 123.292 144.375 122.667 141.875 129.459C136.542 143.917 132.083 158.167 126.667 172.584C126.083 174.209 124.5 177.126 127.167 178.292C130.333 179.667 131 177.334 132.542 174.751C133.333 173.459 133.833 171.751 134.417 170.209C135.75 166.667 137 163.084 138.417 159.584C139.958 155.834 143 153.584 146.958 154.126C151.042 154.709 153.667 157.584 154.458 161.751C154.958 164.334 154.875 165.667 155.292 168.292C156.042 173.042 156.042 173.876 156.583 174.917Z" fill="black"/>
<path d="M22.25 193.626C11.9167 193.126 11.2084 192.709 12.2084 183.084C13.875 166.626 15.875 150.209 17.9167 133.834C18.7084 127.459 21.9584 125.501 28.4584 125.626C49.5417 126.001 58.0834 140.626 59.75 154.667C61.7084 171.167 50.4167 187.292 34.4584 191.626C30.4584 192.667 26.3334 192.959 22.25 193.626ZM25 130.959C23.3334 149.459 21.6667 167.959 19.9584 186.459C38.9167 187.584 52.9584 175.417 53.1667 158.209C53.4167 140.501 43 130.501 25 130.959Z" fill="black"/>
<path d="M199.375 144.25C194.542 144.208 191.958 141.416 192.042 136.25C192.125 130.666 196.292 127.416 203.417 127.458C208.292 127.5 212.083 130.416 211.958 134C211.792 138.458 204.583 144.291 199.375 144.25ZM206 133.875C205.958 132.166 198.292 133.416 197.667 134.708C197.5 135.125 197.375 135.583 197.208 136C196.75 137.208 199.5 138.75 200.333 138.75C202.917 138.791 206.208 134.541 206 133.875Z" fill="black"/>
<path d="M84.5 67.1671C89.5834 62.8755 94.5417 64.0421 96.8334 70.3338C99.1667 76.7504 99.2084 83.2921 97.25 89.7921C95.9167 94.2088 93.3333 97.8338 88.375 97.8754C83.5833 97.9171 80.5 94.7505 78.9584 90.3338C78.125 88.0421 76.7084 73.7088 84.5 67.1671ZM89.25 70.5421C83.4584 68.9588 81.1667 91.4588 87.25 91.2088C93.4584 92.1671 97 72.0838 89.25 70.5421Z" fill="black"/>
<path d="M46.9584 157.292C46.4167 163.167 44.9167 170.251 39.5 175.751C36.625 178.667 32.5 179.626 28.1667 179.584C24.7917 179.209 24.9584 170.834 25.4167 167.167C26.625 157.501 27.7917 150.167 29.2084 140.542C29.75 136.959 32.125 136.584 35.125 137.376C42.6667 139.417 47 146.209 46.9584 157.292ZM31.4584 173.542C36.3334 173.251 39 169.459 40.0834 161.709C41.4167 151.834 39.75 147.042 34.4167 145.167C33.4167 154.584 32.4167 164.042 31.4584 173.542Z" fill="black"/>
<path d="M147.792 132.209C144.833 132.792 143.208 134.25 142.625 139.959C142.083 145.667 143.167 146.709 146.833 147C150.208 147.25 153.958 147.584 154.083 143.875C154.25 139.959 150.625 131.625 147.792 132.209ZM149.542 143.417C148.333 143.417 145 144.292 146.042 140.167C146.708 137.542 146.458 136 148 135.917C149.542 135.834 149.708 138.834 150.083 140.75C150.292 141.584 150.75 143.417 149.542 143.417Z" fill="black"/>
</svg>
