<svg width="109" height="150" viewBox="0 0 109 150" fill="none" xmlns="http://www.w3.org/2000/svg">
<g clip-path="url(#clip0_140_1335)">
<path d="M42.3512 113.036C45 102.738 47.7083 92.4405 50.4167 82.1429C50.625 81.3393 51.0417 80.5357 51.3393 79.881C52.381 77.381 54.0476 77.6191 55.2976 77.8572C57.5298 78.2738 57.5298 79.2857 57.5 81.25C57.4702 83.2143 57.1726 85.2381 56.6667 87.2024C53.2143 100.595 49.7024 113.988 46.131 127.381C45.7143 128.958 45.0893 130.566 44.3155 131.994C42.7976 134.821 40.2381 135 39.1964 132.024C36.9048 125.387 34.9405 118.571 33.2738 111.726C31.5774 104.732 30.3869 97.6191 28.2143 90.4167C27.8274 91.5179 27.381 92.6191 27.0536 93.75C23.2441 106.31 19.4941 118.899 15.6845 131.458C15.2381 132.917 14.7024 134.375 14.0476 135.744C13.0953 137.679 11.6072 139.107 9.22621 138.333C6.78573 137.56 6.5774 135.476 6.99406 133.393C7.79763 129.345 8.51192 125.238 9.73216 121.28C13.631 108.363 17.7083 95.506 21.8155 82.6786C22.381 80.9226 23.2441 79.0774 24.4941 77.7679C25.2679 76.9346 27.1131 76.5476 28.2441 76.8155C29.1964 77.0536 30.2976 78.4524 30.5655 79.5238C32.7083 87.9762 34.7024 96.4286 36.6369 104.911C37.8869 110.417 39.3155 116.399 40.4464 121.905C40.5357 121.905 41.6072 115.833 42.3512 113.036Z" fill="black"/>
<path d="M79.4343 25.6555C85.357 25.6555 90.8927 25.7448 96.4284 25.5365C97.1427 25.5067 97.857 25.3876 98.4224 23.2448C99.9105 17.7686 101.309 12.2626 102.976 6.84598C103.393 5.50669 104.077 3.33407 105.863 3.33407C109.018 3.00669 107.916 6.36978 107.797 7.76859C107.291 13.0662 106.22 18.3043 105.565 23.5722C104.821 27.2626 105.863 26.1317 106.786 26.5186C108.571 27.3222 107.619 30.2091 106.309 30.2388C105.03 30.2984 104.613 30.1496 104.315 31.3698C102.5 39.3162 100.446 49.4353 98.7498 57.4115C98.5415 58.3341 98.2736 59.2567 97.976 60.1495C97.2617 62.1734 96.5772 64.6734 93.8093 64.0186C91.101 63.3638 91.3986 60.8936 91.7855 58.721C92.9462 52.0841 94.1367 45.4472 95.3272 38.8103C95.7439 36.3995 96.1605 33.9591 96.607 31.3995C90.2677 30.7448 84.3153 30.1198 78.1546 29.4948C76.6962 34.8519 75.4462 40.0007 73.8391 45.0603C71.6962 51.8162 69.2855 58.5126 66.9343 65.2091C66.1903 67.3222 65.0593 69.4055 62.351 68.5722C59.6129 67.7388 59.9998 65.3579 60.5653 63.215C65.0593 46.3995 69.5534 29.6138 74.0772 12.7984C74.6129 10.8638 75.3867 8.98883 76.2498 7.17336C77.351 4.88169 79.0177 3.12574 81.8451 4.22693C84.6427 5.32812 84.2855 7.70907 83.6605 9.97098C82.47 14.4055 79.5831 24.6436 79.4343 25.6555Z" fill="black"/>
<path d="M14.5834 47.8872C15.7143 31.2205 19.6429 20.2086 29.2858 8.5122C31.0715 6.33958 33.2441 4.40505 35.506 2.73839C40.5655 -0.981851 42.2917 -0.356851 47.4108 2.91696C52.6489 6.28005 54.9703 11.0122 54.8512 16.5479C54.7024 23.4527 53.8691 30.417 52.381 37.1729C50.3274 46.4586 46.7858 55.2681 40.3572 62.5598C38.75 64.3753 36.7262 65.9824 34.5834 67.1729C28.6905 70.4765 22.5893 68.9289 18.6608 63.3634C15.5953 59.0181 14.7322 54.0479 14.5834 47.8872ZM50.1786 11.9646C48.2441 4.79196 43.0953 3.75029 38.3036 9.1372C37.2917 10.2979 36.3096 11.4884 35.4465 12.7681C29.3453 21.6074 25.4465 31.3693 24.1667 41.9943C23.631 46.4884 23.5417 51.28 24.4941 55.655C25.8631 61.905 30.5358 63.3336 35.3274 59.0777C38.4524 56.3098 41.2203 52.8574 43.2441 49.1967C48.2739 40.0896 52.5893 20.9229 50.1786 11.9646Z" fill="black"/>
<path d="M92.0535 88.5415C91.8154 86.9046 91.0714 84.107 91.9345 83.6903C94.7023 82.4403 95.4166 85.0891 96.2202 87.0237C99.4047 94.7915 98.4225 102.559 95.8928 110.238C93.3928 117.827 89.9404 124.911 83.7797 130.297C79.6725 133.869 75.0297 136.22 69.494 134.315C63.869 132.381 60.7142 127.172 59.8214 121.696C59.2261 118.036 59.613 114.553 60.238 110.922C62.0535 100.417 66.9642 91.2201 74.3154 83.5415C76.3094 81.4582 78.8987 79.7617 82.2023 79.2856C84.4047 78.9582 86.0714 80.5058 86.8452 81.8748C88.0356 84.0177 85.744 84.5534 84.1368 85.3868C82.619 86.1606 81.1606 87.4106 80.1487 88.8094C74.5535 96.2796 69.9702 104.315 68.7499 113.69C68.3035 117.202 68.8392 121.042 69.8511 124.464C71.488 129.911 76.2797 131.339 81.1606 128.274C87.6785 124.196 89.4642 118.601 91.7261 111.696C92.7083 108.363 94.1666 102.857 92.0535 88.5415Z" fill="black"/>
<path d="M5.62495 149.792C3.42257 149.762 -0.0298122 150.238 0.535664 147.619C0.803521 145.327 3.0059 145.387 4.28567 145.327C20.5952 144.494 36.9047 143.601 53.2142 143.214C69.6428 142.827 105.655 142.56 106.369 142.827C108.393 143.542 108.393 147.143 105.238 147.411C100.059 147.798 7.82733 149.821 5.62495 149.792Z" fill="black"/>
</g>
<defs>
<clipPath id="clip0_140_1335">
<rect width="108.571" height="150" fill="white"/>
</clipPath>
</defs>
</svg>
