<svg width="240" height="240" viewBox="0 0 240 240" fill="none" xmlns="http://www.w3.org/2000/svg">
<path d="M59.6667 62.2509C61.375 62.8759 63.0417 63.5009 64.75 64.0843C78.125 68.5843 85.125 78.2509 84.2083 91.0843C83.4167 102.459 74.6667 111.168 60.7917 112.918C51.7917 114.084 46.9583 113.834 37.8333 114.084C36.7083 114.126 31.7917 114.334 30.1667 113.209C27.5 111.376 25.7917 104.709 26.4167 96.3343C26.75 91.7093 29.7917 90.5843 33.9167 90.7093C39.375 90.8759 44.8333 91.6676 50.2917 91.9176C53.5833 92.0843 58 91.8343 61.125 91.0009C63.0833 90.4593 65.7083 89.8759 65.8333 86.5009C65.9583 82.8343 64.25 81.6259 61.125 80.6259C58.9583 79.9176 55 80.0009 50.375 80.0009C43 80.2093 38.9583 79.1259 36.0833 76.2093C32.625 72.6676 32.0417 66.7926 34.75 59.2509C39.7083 45.5426 57.4167 38.9176 70.75 42.0009C74.625 42.9176 75.125 46.0426 74.9167 49.4593C74.625 53.9593 75.2917 55.7093 69.6667 56.7926C64.9167 57.7093 63.5417 58.0843 59.9167 59.7093C58.2083 60.5426 58.25 61.8759 59.6667 62.2509ZM33.2917 106.209C33.3333 106.709 33.75 107.043 34.2083 107.084C44.625 107.543 54.9583 108.001 65 105.001C73.5 102.459 77.875 96.9176 78 89.4176C78.1667 80.8343 73.2083 73.3343 65.375 70.5009C62.7917 69.5426 60.0417 69.0426 57.5 68.0426C52.7083 66.1259 51.9167 59.6676 56.25 56.7926C58.75 55.0843 60.5833 54.2926 65.375 53.3343C66.7083 53.0843 70.25 52.9176 70.0833 50.9176C70.125 49.5426 71 47.9593 65.2917 48.0009C60.375 48.0426 55.75 48.9176 51.9583 51.0009C47.2917 53.5843 43.9167 57.8759 42.2917 61.9593C39.3333 69.3343 41.2917 73.1676 49.0417 73.2509C55.125 73.2926 61.6667 72.8343 66.5417 76.9593C71.2083 80.9593 72.4167 86.1259 70.9167 91.7926C69.5417 97.0426 65.375 99.5426 60.2917 100.251C56.875 100.751 53.375 100.793 49.9167 100.543C44.4167 100.126 38.9167 99.3343 33 98.6259C32.75 98.5843 32.5 98.8343 32.5417 99.0843L33.2917 106.209Z" fill="black"/>
<path d="M111.167 61.1671C113.708 61.4588 118.708 61.7504 120.083 58.7088C120.917 56.8754 123.167 44.6254 124.375 41.3754C125.625 38.0421 125.75 33.3338 131.208 34.2088C137.458 35.2504 141 38.0421 140.708 43.0004C140.292 49.7504 139.375 56.5004 138.542 63.2088C137 75.5004 135.333 87.7921 133.792 100.084C132.75 108.334 130.25 110 122.917 110.209C117.25 110.375 115.375 107.459 115.542 103C115.833 95.0838 119 79.3338 116.958 78.9588C114.958 78.5838 112.708 78.6254 111.583 79.7921C110.625 80.7504 110.333 82.9588 110.083 84.6254C109.083 91.3338 108.417 98.0838 107.208 104.709C105.958 111.667 103.917 113.042 97.5418 112.209C91.2918 111.375 88.7084 108.625 89.2918 102.167C90.9584 84.3754 93.2084 66.6254 94.6667 48.8338C94.8751 46.2088 95.1668 43.7921 95.8751 41.2504C96.7501 38.2088 99.9167 37.2504 104.042 36.2504C109.083 35.0421 110.542 36.0004 110.583 41.4588C110.583 47.8338 110.583 54.1671 110.583 60.5421C110.5 60.9171 110.833 61.1254 111.167 61.1671ZM104.875 42.0838C100.667 42.3338 100.75 43.2921 100.667 47.0838C100.542 51.4171 100.292 55.2504 99.9584 58.8338C98.6251 73.1671 97.5834 86.6254 96.5834 101C96.3334 104.25 95.5001 106.167 98.7084 106.125C101.708 106.167 101.125 104.792 101.792 101.542C102.958 95.7088 103.875 89.8338 104.917 84.0004C106.25 76.7088 107.292 75.5004 114.417 74.0838C119.667 73.0421 122.958 73.9588 122.958 79.3754C123 86.1671 122.375 92.9171 122.208 99.7088C122.125 103.709 121.833 104.459 124 104.5C127.417 104.792 127.292 101.834 127.625 100.25C129.167 92.5004 130.417 84.6671 131.417 76.7921C132.75 66.2921 133.875 55.7921 134.75 45.2504C134.917 43.3754 136.167 39.4588 132.75 39.4588C131.625 39.4171 131.125 38.9171 130.25 42.0838C129.208 46.5838 129.042 48.9171 128.083 53.4171C126.917 58.7921 126.375 61.3754 124.208 63.6671C121.917 66.0838 119.292 66.7504 114.917 67.0838C110.917 67.4171 110.208 67.4588 107.083 67.0004C105.167 66.7088 105.083 64.2088 104.917 60.6671C104.708 54.6671 106.458 41.7088 104.875 42.0838Z" fill="black"/>
<path d="M152.667 152.959C151.708 162.293 150.875 171.168 149.792 179.959C149 186.543 148.125 193.084 146.792 199.584C145.625 205.209 143.208 206.584 137.5 206.001C136 205.834 134.542 205.709 133.083 205.376C127.125 204.084 125.333 202.168 125.875 196.126C126.75 186.418 128.208 176.751 129.292 167.043C129.917 161.501 130.375 155.918 130.917 150.084C128.75 149.751 127 149.501 125.25 149.251C119.208 148.376 118.167 144.668 118.292 139.793C118.5 132.543 120.042 130.251 126 130.001C137.25 129.501 148.542 129.376 159.792 129.043C163.667 128.918 165.125 131.459 165.542 134.626C166 138.251 166.042 141.918 166 145.543C165.917 150.751 164.042 152.584 158.792 152.876C156.833 153.043 154.833 152.959 152.667 152.959ZM139.917 199.793C140.417 199.918 140.917 199.584 141 199.043C141.833 193.834 144.958 170.334 146.5 158.751C147.167 153.709 147.333 149.543 148.667 147.959C150.125 146.251 151.125 146.918 156.625 146.709C159.292 146.626 159.292 146.626 159.667 145.293C160.333 142.418 160.333 134.626 158.75 135.168C148.292 135.168 138.167 135.168 128.083 135.168C126.958 135.168 125.875 135.168 124.792 135.168C123.708 142.668 124.167 143.251 131.042 143.626C134.958 143.834 138.583 144.959 137.958 151.084C137.167 158.751 137.167 166.459 136.417 174.126C135.667 181.793 134.5 189.418 133.458 197.209C133.375 197.834 133.792 198.459 134.417 198.584C136.208 199.043 138.167 199.376 139.917 199.793Z" fill="black"/>
<path d="M213.667 53.042C213.25 60.8337 207.917 67.3337 199.75 71.8337C195.458 74.167 195.25 75.3753 194.708 79.3753C193.833 85.7503 192.292 92.0003 190.75 98.2503C189.583 102.917 186.333 104.459 181.625 103.334C176.417 102.084 174.208 100 174.667 94.8337C175.917 80.9587 177.542 67.167 179.042 53.3337C179.5 49.2087 180.125 45.1253 180.667 41.0003C181.333 36.0003 182.292 33.417 187.083 32.6253C201.458 30.2087 213.667 38.292 213.667 53.042ZM187.5 38.542C186.583 48.167 185.792 56.7087 184.833 65.5837C183.833 74.9587 182.583 84.292 181.708 93.667C181.583 95.0003 181.042 98.1253 183.292 97.8337C185.667 97.8337 185.792 95.7087 186.042 94.4587C187.125 89.292 188.208 83.292 189.25 78.1253C190.708 71.1253 190.5 68.417 197 65.792C204.583 62.7503 208.125 54.5003 206.25 47.917C204.458 41.542 200.167 37.667 190.125 38.3337C189.292 38.4587 188.458 38.5003 187.5 38.542Z" fill="black"/>
<path d="M78.375 197.792C80.9584 179.959 83.4167 162.125 86.2084 144.292C87.25 137.709 94.4167 135.625 103.25 138C105.75 138.667 105.958 142.459 105.708 144.542C103.333 162.584 100.708 180.584 97.8334 198.542C96.6667 205.709 93.9584 207.917 88.4167 207.792C80.6667 207.625 77.625 206.542 78.375 197.792ZM84.1667 201.959C88.0417 202.959 90.125 202.917 90.6667 201.667C91.8334 198.917 95.25 173.375 96.875 162.25C97.75 156.042 98.5 149.834 99.2917 143.5C99.3334 143.334 99.1667 143.167 99 143.167H93.4167C93.125 143.167 92.875 143.375 92.7917 143.667C90.8334 154.334 88.5 167.667 86.75 178.875C84.7084 191.792 82.4584 201.459 84.1667 201.959Z" fill="black"/>
<path d="M159.417 95.0004C158.792 98.2921 157.333 103.25 153.667 103.917C146.667 105.167 141.125 101.917 142 94.7088C143.917 78.6671 146.292 62.6254 148.708 46.6254C149.458 41.5838 151.875 40.5421 158.417 41.3754C163.25 42.0004 165.583 44.6671 165.292 49.3338C165.167 51.1671 161.875 81.7088 159.417 95.0004ZM155.292 46.9588C153.167 46.3754 151.625 64.4588 150.542 72.9588C149.542 80.5004 148.458 87.8754 148.417 95.4588C148.417 97.8338 148.292 99.3754 150.042 99.3754C151.875 99.4588 152.292 99.0838 153.167 96.1671C153.417 95.2504 153.708 94.2921 153.833 93.2921C155.583 79.2088 157.208 65.0838 159.125 51.0004C159.583 47.3754 159.167 47.2921 155.292 46.9588Z" fill="black"/>
<path d="M169.583 187.376C169.75 178.834 175.375 176.167 180.042 176.209C188.458 176.209 192.167 181.001 192.125 188.417C192.125 194.876 187.25 199.876 180.958 199.876C174.708 199.834 169.458 194.126 169.583 187.376ZM179.917 182.584C179.333 182.667 178.375 182.459 177.375 183.334C176.375 184.209 175.958 186.834 176.042 187.876C176.333 191.626 177.875 192.459 180.333 192.459C183.167 192.459 184.792 189.584 184.792 188.001C184.792 184.126 183.667 182.584 179.917 182.584Z" fill="black"/>
<path d="M191.208 55.2926C191.292 54.0426 191.792 50.1676 191.875 49.5843C192.333 46.626 192.875 45.876 193.917 45.4593C194.708 45.1676 195.875 45.001 196.375 46.001C197.542 48.2926 196.667 55.4176 195.75 57.626C195.208 58.876 194.542 59.1676 193.417 59.251C190.667 59.5426 191.125 56.5426 191.208 55.2926Z" fill="black"/>
</svg>
