<svg width="92" height="92" viewBox="0 0 92 92" fill="none" xmlns="http://www.w3.org/2000/svg">
<path d="M54.8167 28.2869C53.3632 26.2105 51.75 24.1022 50.3764 21.8341C49.8493 20.9716 49.4181 19.5022 49.8174 18.7834C50.2327 18.0487 51.7181 17.5056 52.6924 17.5695C56.1104 17.7772 59.5125 18.1924 62.8986 18.7355C64.2243 18.9431 65.007 18.5598 65.9174 17.7293C68.9521 14.9181 72.0028 12.123 75.1493 9.47162C75.916 8.81675 77.4813 8.16189 78.0882 8.51328C78.8868 8.97648 79.4938 10.4299 79.4938 11.4681C79.4938 14.3112 79.2222 17.1702 78.9188 20.0133C78.775 21.323 78.4875 21.6744 80.4521 22.1855C82.6563 22.7605 84.8924 23.2556 87.0327 24.0383C87.7834 24.3098 88.7097 25.2362 88.7896 25.9549C88.8854 26.6737 88.2306 27.9036 87.5757 28.2549C84.8924 29.6765 82.1132 30.9063 79.3021 32.0563C78.232 32.4876 77.6889 32.9188 77.5292 34.1327C76.9063 39.2438 76.1556 44.323 75.4368 49.4181C75.3729 49.8654 75.0056 53.1077 73.1209 53.0918C72.3063 53.0918 71.5396 53.0918 70.3896 51.6063C67.4188 47.4855 64.5757 43.2688 61.7965 39.0202C61.0618 37.9022 60.4229 37.5029 59.0653 37.8543C55.9986 38.6688 52.9 39.3556 49.7854 39.9626C49.0188 40.1063 47.8049 40.6494 47.3257 39.5633C46.9264 38.8445 47.5653 37.9661 47.9965 37.3751C50.1688 34.3563 52.4528 31.4015 54.8167 28.2869ZM74.9736 24.4376C71.859 23.8466 69 23.2556 66.125 22.7765C65.7097 22.6966 65.1028 22.9043 64.7834 23.1918C62.7868 25.0286 60.8382 26.9452 58.8257 28.8779C59.8479 30.4112 60.6625 31.7688 61.6368 33.0147C61.9243 33.398 62.707 33.7174 63.1542 33.6056C66.5882 32.6952 69.9903 31.7049 73.3764 30.6508C73.8077 30.523 74.3507 29.964 74.4306 29.5487C74.7021 27.9355 74.7979 26.2904 74.9736 24.4376ZM72.0986 48.2362C72.7375 43.157 73.3125 38.6369 73.9195 33.9251C70.5334 34.9154 67.4028 35.8258 64.0007 36.8161C66.716 40.6494 69.2556 44.2272 72.0986 48.2362ZM76.2674 12.4424C73.4722 15.014 71.0764 17.2181 68.3931 19.6779C70.9327 20.157 73.0729 20.5723 75.3889 21.0036C75.6764 18.1765 75.932 15.573 76.2674 12.4424ZM61.4771 21.8022C58.5542 21.4188 56.0945 21.0834 53.0757 20.6841C54.609 22.7924 55.8229 24.4376 57.0528 26.1147C58.5063 24.7091 59.816 23.4313 61.4771 21.8022ZM84.0139 26.2904C82.209 25.923 80.4042 25.5556 78.4875 25.1723C78.3438 26.5938 78.232 27.7438 78.0882 29.2133C80.3403 28.2869 84.0459 26.4341 84.0139 26.2904ZM52.8521 35.5862C52.932 35.714 56.8292 35.107 58.8896 34.6438C58.091 33.4299 57.4521 32.4556 56.7014 31.3376C55.2959 32.9029 54.082 34.2445 52.8521 35.5862Z" fill="black"/>
<path d="M31.657 69.783C29.6604 68.7608 27.6639 67.8025 25.7313 66.7164C23.3035 65.3747 23.2236 63.4261 25.6993 62.1643C28.2868 60.8386 31.0181 59.7046 33.7972 58.874C35.2028 58.4428 36.6403 57.6601 36.6403 57.6601C36.6403 57.6601 37.4868 55.8712 37.7104 55.2643C38.6368 52.7726 39.8507 50.3768 41.0327 47.9969C42.3264 45.3775 44.3389 45.2337 45.8722 47.7573C47.1181 49.8018 48.0604 52.0379 49.2264 54.3539C51.9577 53.8747 54.8167 53.3955 57.6757 52.8684C59.0333 52.6289 60.6945 52.3094 61.1736 53.8108C61.4931 54.8171 61.0139 56.4782 60.2951 57.3566C58.634 59.433 56.7014 61.3018 54.7208 63.0747C53.507 64.1608 53.2195 65.0393 53.8583 66.6205C55.1202 69.799 56.1583 73.0893 57.0847 76.3796C57.3403 77.274 57.1806 78.7434 56.6056 79.2865C56.0146 79.8296 54.5292 79.9094 53.6507 79.59C50.2007 78.3282 46.7827 76.9066 43.4445 75.3414C42.0389 74.6865 41.1924 74.8941 40.0903 75.8684C37.375 78.2643 34.6118 80.6122 31.7368 82.8164C31.0181 83.3594 29.884 83.8386 28.8458 83.5032C27.9195 83.3275 28.1431 81.5865 28.3507 80.7719C29.309 77.1462 30.475 73.6004 31.657 69.783ZM35.5542 68.3615C37.2472 69.1441 38.7007 69.9108 40.234 70.5018C40.6972 70.6775 41.5118 70.5497 41.9111 70.2462C44.0195 68.6011 46.0639 66.8921 48.0604 65.1191C48.4278 64.7997 48.891 64.5282 48.5875 63.5698C48.0924 61.9566 47.3896 60.3914 46.7028 58.6504C44.0674 59.3691 41.5597 60.024 39.1 60.7907C38.6528 60.9344 38.4771 60.8546 38.0139 61.9566C37.1354 63.9691 36.4167 66.0775 35.5542 68.3615ZM44.307 72.3705C47.2778 73.5205 49.9292 74.5427 53.0118 75.7247C51.9417 72.658 51.0472 70.1344 50.0729 67.3712C48.1243 69.0643 46.3674 70.5816 44.307 72.3705ZM39.9785 56.8136C42.0389 56.2546 43.6521 55.8073 45.4729 55.3122C44.7382 53.4754 44.0993 51.8462 43.2368 49.7059C42.0389 52.3254 41.0965 54.3698 39.9785 56.8136ZM32.2799 77.7372C32.3757 77.8011 36.4007 74.7823 38.4771 73.0893C37.0556 72.4025 35.8896 71.8275 34.5639 71.1886C33.7653 73.5046 33.0146 75.6289 32.2799 77.7372ZM51.8139 61.0782C53.3792 59.5608 54.9604 58.0115 56.5896 56.4462C54.609 56.8775 52.6125 57.3247 50.4403 57.7879C50.9674 59.0657 51.4306 60.1518 51.8139 61.0782ZM34.7556 62.0205C32.2479 62.9629 30.2993 63.6816 27.9195 64.5761C29.7882 65.5184 31.2257 66.2532 32.807 67.0358C33.4299 65.4386 33.9889 63.9851 34.7556 62.0205Z" fill="black"/>
<path d="M26.4979 20.3005C29.325 19.3262 32.0563 18.288 34.8354 17.4575C35.65 17.2179 37.0556 17.2179 37.391 17.6492C38.1417 18.6075 37.8542 19.6936 37.4229 20.3644C35.3945 23.5748 33.2222 26.7054 30.9542 29.7561C30.0278 30.986 29.6764 32.0082 30.1875 33.5575C31.082 36.1929 31.8007 38.9082 32.3597 41.6394C32.5514 42.5658 32.3757 44.0353 31.7688 44.5464C31.1778 45.0415 29.7083 44.9137 28.8299 44.5623C26.7056 43.7478 24.6451 42.7096 22.6486 41.6235C21.3549 40.9207 20.4924 41.0644 19.3264 42.0547C17.2979 43.7637 15.0778 45.2811 12.8257 46.7026C10.8931 47.9165 9.63126 47.3735 9.79098 45.2651C9.90279 44.0512 9.9507 42.7575 10.1903 41.5276C10.4458 40.154 11.1646 37.2151 11.1326 36.9276C9.20001 36.2089 7.13959 35.57 5.19098 34.6915C4.36043 34.3082 3.24237 33.4297 3.2264 32.7429C3.19445 31.8964 3.96112 30.6665 4.74376 30.2033C7.47501 28.6061 14.8542 25.1561 14.8542 25.1561C15.5729 23.2235 16.4674 19.8214 17.1222 17.8728C17.809 15.8603 18.4958 13.8478 19.2306 11.8672C19.5181 11.1005 20.3646 10.0623 20.9875 10.0304C21.6583 9.99846 22.6965 10.861 23.032 11.5797C24.2778 14.3589 25.3 17.2339 26.4979 20.3005ZM14.8542 35.2026C16.4833 35.8735 17.8729 36.4804 19.2945 37.0075C19.6618 37.1353 20.2847 37.1992 20.4924 36.9915C22.2333 35.2346 23.9264 33.4137 25.5875 31.5929C25.7313 31.4492 25.7472 31.0818 25.6833 30.8582C25.0924 28.8137 24.4854 26.7853 23.8625 24.6929C21.6903 25.6033 19.8056 26.354 17.9688 27.2005C17.4417 27.4401 16.8188 27.9193 16.659 28.4144C15.9882 30.5867 15.4771 32.8068 14.8542 35.2026ZM28.6542 28.1269C30.6986 25.5075 34.0049 20.6998 33.8771 20.5721C31.6889 21.4825 29.4847 22.3769 27.2167 23.3193C27.6799 24.8686 28.0951 26.2582 28.6542 28.1269ZM17.9847 23.7346C19.9014 22.92 21.4028 22.2971 23.016 21.6103C22.3292 19.4221 21.6903 17.3457 20.8917 14.8061C19.8695 17.9526 18.991 20.636 17.9847 23.7346ZM22.984 38.6846C25.0125 39.595 26.8014 40.3936 28.9097 41.3519C28.175 38.9721 27.5681 37.0075 26.8972 34.8832C25.5236 36.2089 24.3736 37.3269 22.984 38.6846ZM13.4167 29.1172C11.1167 30.2512 9.24793 31.1776 6.90001 32.3276C8.9764 33.0623 10.4938 33.5894 12.075 34.1325C12.5063 32.4873 12.8896 31.0818 13.4167 29.1172ZM12.634 42.9492C12.7938 43.061 16.1799 40.8887 17.9528 39.4992C16.4514 38.9082 15.3653 38.4929 14.1195 38.0137C13.5924 39.7867 13.1132 41.3679 12.634 42.9492Z" fill="black"/>
</svg>
