<svg width="240" height="240" viewBox="0 0 240 240" fill="none" xmlns="http://www.w3.org/2000/svg">
<path d="M150.125 126.709C153.917 119.543 158.167 111.126 162.208 104.126C163.292 102.251 164.917 99.3342 167.583 99.7509C171.042 99.9176 170.75 103.584 171.083 105.709C172.042 111.751 172.292 117.876 173 125.501C174.625 122.501 175.625 120.626 176.667 118.793C180.167 112.584 183.375 106.209 187.292 100.251C188.417 98.5426 191.083 95.5426 193.792 97.0842C196.292 98.3759 195.417 102.168 194.625 103.959C188.792 117.293 182.625 130.543 176.292 143.668C174.792 146.793 172.083 148.959 168.208 148.001C164.125 147.001 162.875 143.751 162.833 140.001C162.75 131.043 162.792 122.126 162.792 113.543C162.417 114.251 161.667 115.543 161.042 116.918C156.625 126.918 152.25 136.918 147.75 146.876C146.792 148.959 145.833 151.418 144.125 152.709C142.25 154.168 139.208 155.584 137.292 155.001C135.375 154.418 133.125 151.376 133 149.293C132.75 145.084 133.458 140.709 134.417 136.543C136.75 126.543 139.458 116.626 142 106.668C142.375 105.126 142.708 103.584 143.208 101.459C135.167 105.043 127.792 108.293 120.208 111.668C126.042 124.793 123.75 136.876 115.167 147.876C111.292 152.876 106.292 156.376 99.6251 156.626C91.1668 157.001 84.8751 152.251 84.0835 143.876C82.4585 126.834 89.3335 113.084 102.375 102.543C107.792 98.1676 111.375 99.7092 114.375 106.084C114.833 107.043 117.333 107.751 118.625 107.459C128.458 105.334 136.417 99.7092 143.667 93.0842C146.208 90.7509 148.542 88.2092 152.292 90.1676C156 92.1259 156.417 95.7509 155.708 99.2509C154.208 106.709 152.333 114.126 150.625 121.543C150.458 122.959 150.083 126.126 150.125 126.709ZM109.292 111.334C101.75 119.543 96.1668 128.626 96.1251 140.209C96.1251 144.876 98.2918 146.251 102.458 144.501C113.542 139.834 118.875 118.959 109.292 111.334Z" fill="black"/>
<path d="M51.0834 120.251C45.2501 132.126 38.9168 145.209 32.4584 158.209C30.1251 162.959 27.6251 167.667 25.0834 172.334C23.4168 175.417 21.1668 178.084 17.2501 176.959C13.2501 175.792 12.0418 172.292 12.5418 168.626C13.6251 160.751 14.6251 152.834 16.5001 145.126C21.1251 126.126 26.2084 107.251 31.1668 88.3341C31.7084 86.2507 32.5834 84.1674 33.4584 82.3757C35.2918 78.6674 37.8334 78.7091 39.2084 79.2091C42.0418 80.2091 42.9584 82.7924 43.2501 84.9591C43.6251 87.584 42.3751 90.4591 41.7084 93.1674C37.4584 110.542 33.1668 127.917 28.9584 145.334C28.5834 146.917 27.1668 152.751 29.0001 150.542C33.0834 143.459 37.3334 136.459 41.2084 129.251C45.3334 121.542 49.0001 113.584 53.1668 105.876C54.0001 104.334 56.4584 102.334 57.7084 102.626C59.2084 102.959 61.2501 105.417 61.3334 107.042C61.7084 114.626 61.5001 122.251 62.2084 130.209C64.8334 123.667 67.5834 117.209 70.0418 110.626C72.3751 104.251 74.2918 97.7507 76.5834 91.3341C77.6251 88.4591 78.6251 84.1674 82.6251 85.7091C86.4168 87.2091 84.6251 91.0424 83.3334 93.959C77.6668 106.959 71.7918 119.876 66.2918 132.917C62.8334 141.126 59.9584 149.584 56.5834 157.876C56.0001 159.251 54.8751 161.084 53.2084 161.376C51.5418 161.584 51.1251 158.459 51.1251 157.001C51.0001 144.459 51.0834 131.876 51.0834 120.251Z" fill="black"/>
<path d="M197.583 131.584C198.625 127.167 199.208 123.584 200.292 120.084C205.333 103.625 210.5 87.2503 215.708 70.8337C216.333 68.792 216.958 66.4587 218.333 65.0003C219.625 63.667 222.167 62.4587 223.75 62.8337C225.333 63.2087 227.167 65.542 227.458 67.2503C227.833 69.542 227.125 72.167 226.333 74.5003C220.125 92.8337 213.75 111.125 207.417 129.417C207 130.667 206.333 131.917 205.625 132.917C203.958 135.417 202.083 136.084 200.542 135.875C199.292 135.709 197.167 134.417 197.583 131.584Z" fill="black"/>
<path d="M195.625 148.584C198.042 148.584 199.542 150.834 199.792 153.126C200.083 156.167 198.333 158.251 195.833 158.834C194.125 159.251 190.458 158.917 189.708 154.792C189.5 153.167 189.375 148.626 195.625 148.584Z" fill="black"/>
</svg>
